<svg xmlns="http://www.w3.org/2000/svg" shape-rendering="geometricPrecision" text-rendering="geometricPrecision" image-rendering="optimizeQuality" fill-rule="evenodd" clip-rule="evenodd" viewBox="0 0 434 511.79"><path fill-rule="nonzero" d="M270.23 388.14H163.78v123.65H0V0h257.95C375.32 0 434 63.05 434 189.16c0 69.32-15.28 120.64-45.85 153.94-11.46 12.56-27.3 23.2-47.5 31.93-20.19 8.75-43.67 13.11-70.42 13.11zM163.78 131.01v126.11h37.67c19.65 0 33.97-2.04 42.99-6.14 9-4.1 13.51-13.52 13.51-28.25V165.4c0-14.74-4.51-24.15-13.51-28.25-9.02-4.09-23.34-6.14-42.99-6.14h-37.67z"/></svg>